<?xml version="1.0" standalone="no"?>
<!DOCTYPE svg PUBLIC "-//W3C//DTD SVG 20010904//EN"
 "http://www.w3.org/TR/2001/REC-SVG-20010904/DTD/svg10.dtd">
<svg version="1.0" xmlns="http://www.w3.org/2000/svg"
 width="700.000000pt" height="700.000000pt" viewBox="0 0 700.000000 700.000000"
 preserveAspectRatio="xMidYMid meet">
<metadata>
Created by potrace 1.14, written by Peter Selinger 2001-2017
</metadata>
<g transform="translate(0.000000,700.000000) scale(0.100000,-0.100000)"
fill="#000000" stroke="none">
<path d="M2659 6876 c-169 -45 -282 -208 -306 -440 -16 -149 -6 -299 34 -501
26 -135 31 -124 -72 -157 -89 -29 -101 -30 -201 -12 -28 5 -181 33 -215 39 -9
2 -34 6 -55 9 -22 4 -75 13 -119 21 -44 8 -93 17 -110 20 -16 2 -41 7 -55 10
-14 3 -88 16 -165 30 -142 25 -158 28 -255 46 -30 6 -66 12 -80 14 -14 2 -38
6 -55 9 -115 21 -366 66 -395 71 -19 3 -73 13 -120 21 -127 23 -154 24 -197 4
-22 -10 -53 -35 -69 -55 -23 -31 -28 -48 -29 -94 0 -54 5 -66 109 -246 59
-105 122 -215 139 -245 16 -30 38 -67 49 -82 10 -14 18 -28 18 -31 0 -3 32
-60 70 -127 39 -67 70 -126 70 -131 0 -5 5 -9 10 -9 6 0 10 -4 10 -10 0 -5 42
-83 94 -172 51 -90 105 -183 119 -208 55 -98 228 -402 301 -530 95 -167 79
-139 206 -360 58 -102 109 -192 113 -200 4 -8 17 -31 28 -50 17 -28 342 -595
408 -714 14 -24 289 -507 371 -651 305 -534 517 -906 574 -1005 40 -69 75
-132 79 -140 4 -8 17 -31 28 -50 11 -19 109 -190 217 -379 213 -372 224 -386
309 -395 47 -4 107 19 140 55 11 13 38 56 58 94 21 39 41 75 45 80 4 6 21 35
37 65 17 30 43 78 58 105 16 28 36 64 45 80 9 17 61 109 115 205 54 96 112
200 129 230 16 30 40 73 53 95 12 22 37 67 55 100 18 33 37 68 43 77 5 9 36
63 67 120 32 57 72 128 89 158 17 30 42 75 56 100 13 25 32 59 42 75 9 17 54
95 98 175 44 80 91 163 103 185 44 77 213 381 240 430 15 28 98 176 185 330
86 154 171 305 188 335 16 30 49 89 72 130 23 41 53 95 67 120 27 49 271 485
374 668 35 63 64 118 64 123 0 5 5 9 10 9 6 0 10 4 10 10 0 5 61 118 136 252
75 134 150 268 167 298 16 30 49 89 72 130 52 93 212 377 250 445 15 28 62
111 103 185 116 208 122 221 122 270 0 112 -99 184 -219 160 -49 -10 -85 -17
-141 -26 -19 -3 -80 -14 -135 -25 -55 -11 -116 -22 -135 -25 -19 -3 -80 -14
-135 -24 -55 -11 -113 -22 -130 -25 -16 -3 -91 -16 -165 -30 -74 -13 -151 -27
-170 -30 -19 -3 -71 -12 -115 -21 -44 -8 -129 -24 -190 -34 -60 -11 -121 -22
-135 -25 -102 -21 -260 -48 -281 -48 -32 1 -190 53 -185 62 4 7 42 187 51 241
7 49 18 196 18 250 0 314 -121 521 -332 570 -69 16 -188 8 -271 -20 -61 -20
-239 -104 -250 -119 -3 -3 -18 -15 -35 -25 -68 -42 -162 -117 -260 -208 l-50
-46 -50 46 c-28 26 -73 65 -100 87 -28 22 -52 43 -55 46 -12 13 -141 99 -199
133 -173 100 -350 138 -482 102z m215 -171 c109 -29 241 -102 377 -211 87 -69
169 -145 169 -155 0 -4 -10 -19 -22 -32 -58 -59 -226 -266 -289 -355 -14 -21
-26 -23 -164 -37 -33 -4 -67 -8 -75 -10 -8 -2 -36 -7 -62 -10 -26 -4 -86 -15
-135 -25 -48 -10 -91 -15 -94 -12 -7 7 -44 190 -55 272 -10 73 -12 259 -3 309
42 233 154 318 353 266z m1535 -1 c108 -43 163 -178 163 -404 0 -69 -2 -139
-5 -155 -4 -17 -9 -50 -12 -75 -8 -53 -41 -210 -47 -215 -2 -3 -20 0 -39 5
-19 5 -50 11 -69 14 -19 3 -46 8 -60 11 -55 11 -289 42 -332 44 -9 1 -40 34
-69 74 -48 66 -176 224 -247 306 l-30 34 67 60 c274 246 531 361 680 301z
m-706 -671 c37 -46 67 -86 67 -88 0 -2 -8 -2 -17 0 -10 2 -112 4 -227 4 l-208
1 38 48 c21 26 41 49 44 52 3 3 13 15 22 28 8 12 39 49 69 81 l53 58 46 -50
c25 -27 75 -88 113 -134z m72 -257 c39 -3 82 -6 96 -6 22 0 36 -14 79 -80 31
-48 49 -85 44 -90 -5 -5 -29 -11 -54 -15 -25 -3 -52 -8 -60 -10 -8 -2 -31 -7
-50 -10 -19 -3 -87 -15 -150 -27 -63 -12 -128 -21 -145 -21 -25 0 -198 28
-295 48 -14 3 -53 10 -88 16 -34 6 -64 14 -66 18 -5 8 101 171 112 171 4 1 66
3 137 7 72 3 131 6 132 7 3 3 240 -3 308 -8z m-831 -75 c-44 -76 -45 -76 -116
-63 -107 20 -122 23 -160 29 -42 6 -50 20 -15 28 33 7 137 26 177 32 19 3 53
8 75 12 66 12 67 11 39 -38z m1259 35 c27 -4 59 -9 70 -12 12 -2 38 -7 57 -10
56 -8 131 -26 127 -30 -3 -3 -144 -31 -247 -49 -21 -3 -30 4 -57 50 -38 61
-39 65 -15 61 9 -2 39 -7 65 -10z"/>
</g>
</svg>
